<svg width="47" height="24" viewBox="0 0 47 24" fill="none" xmlns="http://www.w3.org/2000/svg">
<path d="M8.78 21.42C7.58 21.42 6.49 21.18 5.51 20.7C4.53 20.22 3.69 19.53 2.99 18.63C2.31 17.73 1.78 16.66 1.4 15.42C1.04 14.16 0.86 12.76 0.86 11.22C0.86 9.02 1.2 7.15 1.88 5.61C2.56 4.05 3.5 2.86 4.7 2.04C5.9 1.22 7.28 0.809999 8.84 0.809999C10.46 0.809999 11.85 1.25 13.01 2.13C14.19 2.99 15.09 4.2 15.71 5.76C16.35 7.3 16.67 9.11 16.67 11.19C16.67 12.71 16.49 14.1 16.13 15.36C15.77 16.62 15.24 17.7 14.54 18.6C13.84 19.5 13.01 20.2 12.05 20.7C11.09 21.18 10 21.42 8.78 21.42ZM8.78 19.05C9.52 19.05 10.2 18.89 10.82 18.57C11.44 18.23 11.98 17.73 12.44 17.07C12.92 16.41 13.29 15.59 13.55 14.61C13.81 13.61 13.94 12.44 13.94 11.1C13.94 9.44 13.72 8.02 13.28 6.84C12.86 5.66 12.26 4.75 11.48 4.11C10.72 3.47 9.83 3.15 8.81 3.15C7.89 3.15 7.03 3.43 6.23 3.99C5.45 4.53 4.81 5.39 4.31 6.57C3.83 7.73 3.59 9.24 3.59 11.1C3.59 12.4 3.72 13.55 3.98 14.55C4.24 15.53 4.6 16.36 5.06 17.04C5.52 17.7 6.06 18.2 6.68 18.54C7.32 18.88 8.02 19.05 8.78 19.05ZM19.9524 21V17.79L27.0024 12.42C27.4424 12.06 27.8924 11.68 28.3524 11.28C28.8124 10.86 29.2324 10.4 29.6124 9.9C30.0124 9.4 30.3324 8.87 30.5724 8.31C30.8324 7.75 30.9624 7.15 30.9624 6.51C30.9624 5.85 30.8124 5.27 30.5124 4.77C30.2124 4.27 29.7624 3.89 29.1624 3.63C28.5824 3.35 27.8524 3.21 26.9724 3.21C26.3724 3.21 25.8124 3.29 25.2924 3.45C24.7724 3.61 24.3224 3.89 23.9424 4.29C23.5624 4.69 23.2724 5.22 23.0724 5.88C22.8924 6.54 22.8024 7.36 22.8024 8.34L20.1624 7.89C20.1224 6.45 20.3524 5.2 20.8524 4.14C21.3524 3.06 22.1124 2.23 23.1324 1.65C24.1724 1.07 25.4724 0.779999 27.0324 0.779999C28.3724 0.779999 29.5424 0.999999 30.5424 1.44C31.5424 1.88 32.3124 2.52 32.8524 3.36C33.4124 4.18 33.6924 5.16 33.6924 6.3C33.6924 7.24 33.5324 8.11 33.2124 8.91C32.8924 9.69 32.4824 10.41 31.9824 11.07C31.4824 11.71 30.9324 12.29 30.3324 12.81C29.7524 13.31 29.1824 13.76 28.6224 14.16L22.9524 18.48V18.75L34.1724 18.63V21H19.9524ZM35.7397 23.49L43.4497 -1.43051e-06H46.0897L38.3797 23.49H35.7397Z" fill="white"/>
</svg>
