<svg width="47" height="24" viewBox="0 0 47 24" fill="none" xmlns="http://www.w3.org/2000/svg">
<path d="M8.78 21.42C7.58 21.42 6.49 21.18 5.51 20.7C4.53 20.22 3.69 19.53 2.99 18.63C2.31 17.73 1.78 16.66 1.4 15.42C1.04 14.16 0.86 12.76 0.86 11.22C0.86 9.02 1.2 7.15 1.88 5.61C2.56 4.05 3.5 2.86 4.7 2.04C5.9 1.22 7.28 0.809999 8.84 0.809999C10.46 0.809999 11.85 1.25 13.01 2.13C14.19 2.99 15.09 4.2 15.71 5.76C16.35 7.3 16.67 9.11 16.67 11.19C16.67 12.71 16.49 14.1 16.13 15.36C15.77 16.62 15.24 17.7 14.54 18.6C13.84 19.5 13.01 20.2 12.05 20.7C11.09 21.18 10 21.42 8.78 21.42ZM8.78 19.05C9.52 19.05 10.2 18.89 10.82 18.57C11.44 18.23 11.98 17.73 12.44 17.07C12.92 16.41 13.29 15.59 13.55 14.61C13.81 13.61 13.94 12.44 13.94 11.1C13.94 9.44 13.72 8.02 13.28 6.84C12.86 5.66 12.26 4.75 11.48 4.11C10.72 3.47 9.83 3.15 8.81 3.15C7.89 3.15 7.03 3.43 6.23 3.99C5.45 4.53 4.81 5.39 4.31 6.57C3.83 7.73 3.59 9.24 3.59 11.1C3.59 12.4 3.72 13.55 3.98 14.55C4.24 15.53 4.6 16.36 5.06 17.04C5.52 17.7 6.06 18.2 6.68 18.54C7.32 18.88 8.02 19.05 8.78 19.05ZM26.7624 21.42C25.5424 21.42 24.4824 21.28 23.5824 21C22.7024 20.74 21.9624 20.36 21.3624 19.86C20.7824 19.34 20.3324 18.73 20.0124 18.03C19.7124 17.31 19.5324 16.52 19.4724 15.66L22.0224 14.91C22.0624 15.73 22.2224 16.42 22.5024 16.98C22.8024 17.52 23.1824 17.95 23.6424 18.27C24.1024 18.57 24.6024 18.79 25.1424 18.93C25.7024 19.05 26.2424 19.11 26.7624 19.11C27.7024 19.11 28.5424 18.99 29.2824 18.75C30.0424 18.49 30.6524 18.08 31.1124 17.52C31.5724 16.96 31.8024 16.24 31.8024 15.36C31.8024 14.22 31.4624 13.33 30.7824 12.69C30.1024 12.05 29.1524 11.6 27.9324 11.34C26.7324 11.08 25.3124 10.98 23.6724 11.04V9.24L30.6324 3.72V3.48L20.2524 3.54V1.2H33.3924V4.14L26.9424 9.3V9.51C28.7624 9.51 30.2224 9.76 31.3224 10.26C32.4424 10.76 33.2524 11.45 33.7524 12.33C34.2724 13.21 34.5324 14.2 34.5324 15.3C34.5324 16.54 34.2424 17.62 33.6624 18.54C33.0824 19.44 32.2124 20.15 31.0524 20.67C29.9124 21.17 28.4824 21.42 26.7624 21.42ZM36.0327 23.49L43.7427 -1.43051e-06H46.3827L38.6727 23.49H36.0327Z" fill="white"/>
</svg>
