<svg width="47" height="24" viewBox="0 0 47 24" fill="none" xmlns="http://www.w3.org/2000/svg">
<path d="M8.78 21.42C7.58 21.42 6.49 21.18 5.51 20.7C4.53 20.22 3.69 19.53 2.99 18.63C2.31 17.73 1.78 16.66 1.4 15.42C1.04 14.16 0.86 12.76 0.86 11.22C0.86 9.02 1.2 7.15 1.88 5.61C2.56 4.05 3.5 2.86 4.7 2.04C5.9 1.22 7.28 0.809999 8.84 0.809999C10.46 0.809999 11.85 1.25 13.01 2.13C14.19 2.99 15.09 4.2 15.71 5.76C16.35 7.3 16.67 9.11 16.67 11.19C16.67 12.71 16.49 14.1 16.13 15.36C15.77 16.62 15.24 17.7 14.54 18.6C13.84 19.5 13.01 20.2 12.05 20.7C11.09 21.18 10 21.42 8.78 21.42ZM8.78 19.05C9.52 19.05 10.2 18.89 10.82 18.57C11.44 18.23 11.98 17.73 12.44 17.07C12.92 16.41 13.29 15.59 13.55 14.61C13.81 13.61 13.94 12.44 13.94 11.1C13.94 9.44 13.72 8.02 13.28 6.84C12.86 5.66 12.26 4.75 11.48 4.11C10.72 3.47 9.83 3.15 8.81 3.15C7.89 3.15 7.03 3.43 6.23 3.99C5.45 4.53 4.81 5.39 4.31 6.57C3.83 7.73 3.59 9.24 3.59 11.1C3.59 12.4 3.72 13.55 3.98 14.55C4.24 15.53 4.6 16.36 5.06 17.04C5.52 17.7 6.06 18.2 6.68 18.54C7.32 18.88 8.02 19.05 8.78 19.05ZM19.6147 16.68V13.56C20.5547 12.62 21.4447 11.64 22.2847 10.62C23.1247 9.58 23.9047 8.53 24.6247 7.47C25.3447 6.41 25.9847 5.35 26.5447 4.29C27.1047 3.23 27.5747 2.19 27.9547 1.17H32.7547V21H30.0247V3.27H29.7847C29.1447 4.77 28.4247 6.17 27.6247 7.47C26.8247 8.75 25.9747 9.94 25.0747 11.04C24.1947 12.12 23.2847 13.13 22.3447 14.07V14.34H35.2447V16.68H19.6147ZM36.267 23.49L43.977 -1.43051e-06H46.617L38.907 23.49H36.267Z" fill="white"/>
</svg>
