<svg width="47" height="24" viewBox="0 0 47 24" fill="none" xmlns="http://www.w3.org/2000/svg">
<path d="M8.78 21.42C7.58 21.42 6.49 21.18 5.51 20.7C4.53 20.22 3.69 19.53 2.99 18.63C2.31 17.73 1.78 16.66 1.4 15.42C1.04 14.16 0.86 12.76 0.86 11.22C0.86 9.02 1.2 7.15 1.88 5.61C2.56 4.05 3.5 2.86 4.7 2.04C5.9 1.22 7.28 0.809999 8.84 0.809999C10.46 0.809999 11.85 1.25 13.01 2.13C14.19 2.99 15.09 4.2 15.71 5.76C16.35 7.3 16.67 9.11 16.67 11.19C16.67 12.71 16.49 14.1 16.13 15.36C15.77 16.62 15.24 17.7 14.54 18.6C13.84 19.5 13.01 20.2 12.05 20.7C11.09 21.18 10 21.42 8.78 21.42ZM8.78 19.05C9.52 19.05 10.2 18.89 10.82 18.57C11.44 18.23 11.98 17.73 12.44 17.07C12.92 16.41 13.29 15.59 13.55 14.61C13.81 13.61 13.94 12.44 13.94 11.1C13.94 9.44 13.72 8.02 13.28 6.84C12.86 5.66 12.26 4.75 11.48 4.11C10.72 3.47 9.83 3.15 8.81 3.15C7.89 3.15 7.03 3.43 6.23 3.99C5.45 4.53 4.81 5.39 4.31 6.57C3.83 7.73 3.59 9.24 3.59 11.1C3.59 12.4 3.72 13.55 3.98 14.55C4.24 15.53 4.6 16.36 5.06 17.04C5.52 17.7 6.06 18.2 6.68 18.54C7.32 18.88 8.02 19.05 8.78 19.05ZM27.2703 21.42C25.8503 21.42 24.6203 21.21 23.5803 20.79C22.5603 20.35 21.7703 19.73 21.2103 18.93C20.6503 18.13 20.3603 17.18 20.3403 16.08L22.8903 15.45C22.9903 16.59 23.3803 17.48 24.0603 18.12C24.7603 18.74 25.8103 19.05 27.2103 19.05C28.6703 19.05 29.8003 18.67 30.6003 17.91C31.4203 17.13 31.8303 15.92 31.8303 14.28C31.8303 13.68 31.7603 13.11 31.6203 12.57C31.5003 12.01 31.2903 11.52 30.9903 11.1C30.7103 10.66 30.3203 10.32 29.8203 10.08C29.3203 9.82 28.7003 9.69 27.9603 9.69C27.3403 9.69 26.7903 9.77 26.3103 9.93C25.8503 10.09 25.4603 10.31 25.1403 10.59C24.8203 10.85 24.5503 11.15 24.3303 11.49C24.1303 11.81 23.9703 12.15 23.8503 12.51H20.7603L21.3903 1.2H33.6903V3.6H23.7603L23.3103 10.68H23.6703C24.0903 9.5 24.7603 8.67 25.6803 8.19C26.6203 7.69 27.6303 7.44 28.7103 7.44C30.0703 7.44 31.1803 7.73 32.0403 8.31C32.9203 8.87 33.5703 9.66 33.9903 10.68C34.4303 11.68 34.6503 12.86 34.6503 14.22C34.6503 15.94 34.3203 17.33 33.6603 18.39C33.0203 19.45 32.1403 20.22 31.0203 20.7C29.9203 21.18 28.6703 21.42 27.2703 21.42ZM36.1205 23.49L43.8305 -1.43051e-06H46.4705L38.7605 23.49H36.1205Z" fill="white"/>
</svg>
