<svg width="1529" height="688" viewBox="0 0 1529 688" fill="none" xmlns="http://www.w3.org/2000/svg">
<path d="M90.8235 1H1V58.1667M90.8235 1V58.1667M90.8235 1H180.647M90.8235 58.1667H1M90.8235 58.1667H180.647M90.8235 58.1667V115.333M1 58.1667V115.333M180.647 1V58.1667M180.647 1H270.471M180.647 58.1667H270.471M180.647 58.1667V115.333M270.471 1V58.1667M270.471 1H360.294M270.471 58.1667H360.294M270.471 58.1667V115.333M360.294 1V58.1667M360.294 1H450.118M360.294 58.1667H450.118M360.294 58.1667V115.333M450.118 1V58.1667M450.118 1H539.941M450.118 58.1667H539.941M450.118 58.1667V115.333M539.941 1V58.1667M539.941 1H629.765M539.941 58.1667H629.765M539.941 58.1667V115.333M629.765 1V58.1667M629.765 1H719.588M629.765 58.1667H719.588M629.765 58.1667V115.333M719.588 1V58.1667M719.588 1H809.412M719.588 58.1667H809.412M719.588 58.1667V115.333M809.412 1V58.1667M809.412 1H899.235M809.412 58.1667H899.235M809.412 58.1667V115.333M899.235 1V58.1667M899.235 1H989.059M899.235 58.1667H989.059M899.235 58.1667V115.333M989.059 1V58.1667M989.059 1H1078.88M989.059 58.1667H1078.88M989.059 58.1667V115.333M1078.88 1V58.1667M1078.88 1H1168.71M1078.88 58.1667H1168.71M1078.88 58.1667V115.333M1168.71 1V58.1667M1168.71 1H1258.53M1168.71 58.1667H1258.53M1168.71 58.1667V115.333M1258.53 1V58.1667M1258.53 1H1348.35M1258.53 58.1667H1348.35M1258.53 58.1667V115.333M1348.35 1V58.1667M1348.35 1H1438.18M1348.35 58.1667H1438.18M1348.35 58.1667V115.333M1438.18 1V58.1667M1438.18 1H1528V58.1667M1438.18 58.1667H1528M1438.18 58.1667V115.333M1528 58.1667V115.333M90.8235 115.333H1M90.8235 115.333H180.647M90.8235 115.333V172.5M1 115.333V172.5M180.647 115.333H270.471M180.647 115.333V172.5M270.471 115.333H360.294M270.471 115.333V172.5M360.294 115.333H450.118M360.294 115.333V172.5M450.118 115.333H539.941M450.118 115.333V172.5M539.941 115.333H629.765M539.941 115.333V172.5M629.765 115.333H719.588M629.765 115.333V172.5M719.588 115.333H809.412M719.588 115.333V172.5M809.412 115.333H899.235M809.412 115.333V172.5M899.235 115.333H989.059M899.235 115.333V172.5M989.059 115.333H1078.88M989.059 115.333V172.5M1078.88 115.333H1168.71M1078.88 115.333V172.5M1168.71 115.333H1258.53M1168.71 115.333V172.5M1258.53 115.333H1348.35M1258.53 115.333V172.5M1348.35 115.333H1438.18M1348.35 115.333V172.5M1438.18 115.333H1528M1438.18 115.333V172.5M1528 115.333V172.5M90.8235 172.5H1M90.8235 172.5H180.647M90.8235 172.5V229.667M1 172.5V229.667M180.647 172.5H270.471M180.647 172.5V229.667M270.471 172.5H360.294M270.471 172.5V229.667M360.294 172.5H450.118M360.294 172.5V229.667M450.118 172.5H539.941M450.118 172.5V229.667M539.941 172.5H629.765M539.941 172.5V229.667M629.765 172.5H719.588M629.765 172.5V229.667M719.588 172.5H809.412M719.588 172.5V229.667M809.412 172.5H899.235M809.412 172.5V229.667M899.235 172.5H989.059M899.235 172.5V229.667M989.059 172.5H1078.88M989.059 172.5V229.667M1078.88 172.5H1168.71M1078.88 172.5V229.667M1168.71 172.5H1258.53M1168.71 172.5V229.667M1258.53 172.5H1348.35M1258.53 172.5V229.667M1348.35 172.5H1438.18M1348.35 172.5V229.667M1438.18 172.5H1528M1438.18 172.5V229.667M1528 172.5V229.667M90.8235 229.667H1M90.8235 229.667H180.647M90.8235 229.667V286.833M1 229.667V286.833M180.647 229.667H270.471M180.647 229.667V286.833M270.471 229.667H360.294M270.471 229.667V286.833M360.294 229.667H450.118M360.294 229.667V286.833M450.118 229.667H539.941M450.118 229.667V286.833M539.941 229.667H629.765M539.941 229.667V286.833M629.765 229.667H719.588M629.765 229.667V286.833M719.588 229.667H809.412M719.588 229.667V286.833M809.412 229.667H899.235M809.412 229.667V286.833M899.235 229.667H989.059M899.235 229.667V286.833M989.059 229.667H1078.88M989.059 229.667V286.833M1078.88 229.667H1168.71M1078.88 229.667V286.833M1168.71 229.667H1258.53M1168.71 229.667V286.833M1258.53 229.667H1348.35M1258.53 229.667V286.833M1348.35 229.667H1438.18M1348.35 229.667V286.833M1438.18 229.667H1528M1438.18 229.667V286.833M1528 229.667V286.833M90.8235 286.833H1M90.8235 286.833H180.647M90.8235 286.833V344M1 286.833V344M180.647 286.833H270.471M180.647 286.833V344M270.471 286.833H360.294M270.471 286.833V344M360.294 286.833H450.118M360.294 286.833V344M450.118 286.833H539.941M450.118 286.833V344M539.941 286.833H629.765M539.941 286.833V344M629.765 286.833H719.588M629.765 286.833V344M719.588 286.833H809.412M719.588 286.833V344M809.412 286.833H899.235M809.412 286.833V344M899.235 286.833H989.059M899.235 286.833V344M989.059 286.833H1078.88M989.059 286.833V344M1078.88 286.833H1168.71M1078.88 286.833V344M1168.71 286.833H1258.53M1168.71 286.833V344M1258.53 286.833H1348.35M1258.53 286.833V344M1348.35 286.833H1438.18M1348.35 286.833V344M1438.18 286.833H1528M1438.18 286.833V344M1528 286.833V344M90.8235 344H1M90.8235 344H180.647M90.8235 344V401.167M1 344V401.167M180.647 344H270.471M180.647 344V401.167M270.471 344H360.294M270.471 344V401.167M360.294 344H450.118M360.294 344V401.167M450.118 344H539.941M450.118 344V401.167M539.941 344H629.765M539.941 344V401.167M629.765 344H719.588M629.765 344V401.167M719.588 344H809.412M719.588 344V401.167M809.412 344H899.235M809.412 344V401.167M899.235 344H989.059M899.235 344V401.167M989.059 344H1078.88M989.059 344V401.167M1078.88 344H1168.71M1078.88 344V401.167M1168.71 344H1258.53M1168.71 344V401.167M1258.53 344H1348.35M1258.53 344V401.167M1348.35 344H1438.18M1348.35 344V401.167M1438.18 344H1528M1438.18 344V401.167M1528 344V401.167M90.8235 401.167H1M90.8235 401.167H180.647M90.8235 401.167V458.333M1 401.167V458.333M180.647 401.167H270.471M180.647 401.167V458.333M270.471 401.167H360.294M270.471 401.167V458.333M360.294 401.167H450.118M360.294 401.167V458.333M450.118 401.167H539.941M450.118 401.167V458.333M539.941 401.167H629.765M539.941 401.167V458.333M629.765 401.167H719.588M629.765 401.167V458.333M719.588 401.167H809.412M719.588 401.167V458.333M809.412 401.167H899.235M809.412 401.167V458.333M899.235 401.167H989.059M899.235 401.167V458.333M989.059 401.167H1078.88M989.059 401.167V458.333M1078.88 401.167H1168.71M1078.88 401.167V458.333M1168.71 401.167H1258.53M1168.71 401.167V458.333M1258.53 401.167H1348.35M1258.53 401.167V458.333M1348.35 401.167H1438.18M1348.35 401.167V458.333M1438.18 401.167H1528M1438.18 401.167V458.333M1528 401.167V458.333M90.8235 458.333H1M90.8235 458.333H180.647M90.8235 458.333V515.5M1 458.333V515.5M180.647 458.333H270.471M180.647 458.333V515.5M270.471 458.333H360.294M270.471 458.333V515.5M360.294 458.333H450.118M360.294 458.333V515.5M450.118 458.333H539.941M450.118 458.333V515.5M539.941 458.333H629.765M539.941 458.333V515.5M629.765 458.333H719.588M629.765 458.333V515.5M719.588 458.333H809.412M719.588 458.333V515.5M809.412 458.333H899.235M809.412 458.333V515.5M899.235 458.333H989.059M899.235 458.333V515.5M989.059 458.333H1078.88M989.059 458.333V515.5M1078.88 458.333H1168.71M1078.88 458.333V515.5M1168.71 458.333H1258.53M1168.71 458.333V515.5M1258.53 458.333H1348.35M1258.53 458.333V515.5M1348.35 458.333H1438.18M1348.35 458.333V515.5M1438.18 458.333H1528M1438.18 458.333V515.5M1528 458.333V515.5M90.8235 515.5H1M90.8235 515.5H180.647M90.8235 515.5V572.667M1 515.5V572.667M180.647 515.5H270.471M180.647 515.5V572.667M270.471 515.5H360.294M270.471 515.5V572.667M360.294 515.5H450.118M360.294 515.5V572.667M450.118 515.5H539.941M450.118 515.5V572.667M539.941 515.5H629.765M539.941 515.5V572.667M629.765 515.5H719.588M629.765 515.5V572.667M719.588 515.5H809.412M719.588 515.5V572.667M809.412 515.5H899.235M809.412 515.5V572.667M899.235 515.5H989.059M899.235 515.5V572.667M989.059 515.5H1078.88M989.059 515.5V572.667M1078.88 515.5H1168.71M1078.88 515.5V572.667M1168.71 515.5H1258.53M1168.71 515.5V572.667M1258.53 515.5H1348.35M1258.53 515.5V572.667M1348.35 515.5H1438.18M1348.35 515.5V572.667M1438.18 515.5H1528M1438.18 515.5V572.667M1528 515.5V572.667M90.8235 572.667H1M90.8235 572.667H180.647M90.8235 572.667V629.833M1 572.667V629.833M180.647 572.667H270.471M180.647 572.667V629.833M270.471 572.667H360.294M270.471 572.667V629.833M360.294 572.667H450.118M360.294 572.667V629.833M450.118 572.667H539.941M450.118 572.667V629.833M539.941 572.667H629.765M539.941 572.667V629.833M629.765 572.667H719.588M629.765 572.667V629.833M719.588 572.667H809.412M719.588 572.667V629.833M809.412 572.667H899.235M809.412 572.667V629.833M899.235 572.667H989.059M899.235 572.667V629.833M989.059 572.667H1078.88M989.059 572.667V629.833M1078.88 572.667H1168.71M1078.88 572.667V629.833M1168.71 572.667H1258.53M1168.71 572.667V629.833M1258.53 572.667H1348.35M1258.53 572.667V629.833M1348.35 572.667H1438.18M1348.35 572.667V629.833M1438.18 572.667H1528M1438.18 572.667V629.833M1528 572.667V629.833M90.8235 629.833H1M90.8235 629.833H180.647M90.8235 629.833V687M1 629.833V687H90.8235M180.647 629.833H270.471M180.647 629.833V687M270.471 629.833H360.294M270.471 629.833V687M360.294 629.833H450.118M360.294 629.833V687M450.118 629.833H539.941M450.118 629.833V687M539.941 629.833H629.765M539.941 629.833V687M629.765 629.833H719.588M629.765 629.833V687M719.588 629.833H809.412M719.588 629.833V687M809.412 629.833H899.235M809.412 629.833V687M899.235 629.833H989.059M899.235 629.833V687M989.059 629.833H1078.88M989.059 629.833V687M1078.88 629.833H1168.71M1078.88 629.833V687M1168.71 629.833H1258.53M1168.71 629.833V687M1258.53 629.833H1348.35M1258.53 629.833V687M1348.35 629.833H1438.18M1348.35 629.833V687M1438.18 629.833H1528M1438.18 629.833V687M1528 629.833V687H1438.18M90.8235 687H180.647M180.647 687H270.471M270.471 687H360.294M360.294 687H450.118M450.118 687H539.941M539.941 687H629.765M629.765 687H719.588M719.588 687H809.412M809.412 687H899.235M899.235 687H989.059M989.059 687H1078.88M1078.88 687H1168.71M1168.71 687H1258.53M1258.53 687H1348.35M1348.35 687H1438.18" stroke="url(#paint0_radial_104_808)" stroke-opacity="0.5"/>
<defs>
<radialGradient id="paint0_radial_104_808" cx="0" cy="0" r="1" gradientUnits="userSpaceOnUse" gradientTransform="translate(764.5 362.323) rotate(90) scale(323.944 764.652)">
<stop stop-color="#0310F7" stop-opacity="0.5"/>
<stop offset="1" stop-color="white" stop-opacity="0"/>
</radialGradient>
</defs>
</svg>
