<svg width="26" height="25" viewBox="0 0 26 25" fill="none" xmlns="http://www.w3.org/2000/svg">
<path fill-rule="evenodd" clip-rule="evenodd" d="M24.026 12.3006C24.3652 12.3487 24.7096 12.2601 24.9834 12.0542C25.2573 11.8484 25.4382 11.5422 25.4863 11.2031C25.5344 10.8639 25.4458 10.5195 25.2399 10.2456C25.0341 9.9718 24.7279 9.79093 24.3888 9.74282L21.831 9.38008C21.4918 9.33198 21.1475 9.42058 20.8736 9.62641C20.5998 9.83223 20.4189 10.1384 20.3708 10.4776C20.3227 10.8168 20.4113 11.1612 20.6171 11.435C20.8229 11.7088 21.1291 11.8897 21.4683 11.9378L24.026 12.3006ZM23.5059 6.30917C23.6448 6.20852 23.7622 6.08122 23.8514 5.9347C23.9405 5.78818 23.9996 5.62537 24.0252 5.45577C24.0507 5.28617 24.0422 5.11318 24.0002 4.94689C23.9582 4.78061 23.8835 4.62435 23.7805 4.48725C23.6774 4.35014 23.5481 4.23493 23.4 4.14834C23.252 4.06174 23.0882 4.0055 22.9182 3.9829C22.7482 3.96029 22.5753 3.97177 22.4098 4.01667C22.2443 4.06156 22.0893 4.13898 21.954 4.24439L19.8867 5.79589C19.7509 5.89793 19.6366 6.02572 19.5502 6.17194C19.4638 6.31817 19.4071 6.47999 19.3833 6.64814C19.3594 6.8163 19.3689 6.9875 19.4112 7.15199C19.4535 7.31647 19.5278 7.471 19.6299 7.60677C19.7319 7.74254 19.8597 7.85688 20.0059 7.94326C20.1522 8.02964 20.314 8.08638 20.4821 8.11023C20.6503 8.13407 20.8215 8.12457 20.986 8.08225C21.1505 8.03993 21.305 7.96563 21.4408 7.86359L23.5059 6.30917ZM17.401 11.0883C17.9953 9.89673 16.9757 8.54017 15.6673 8.7786L1.47309 11.3747C0.0373939 11.6368 -0.341561 13.5178 0.881127 14.3161L6.14311 17.7433L7.97207 23.7507C8.39764 25.1469 10.3111 25.3061 10.9621 23.9999L17.401 11.0883ZM21.9668 17.1617C21.693 17.3674 21.3486 17.456 21.0095 17.4079C20.6704 17.3598 20.3643 17.179 20.1585 16.9052L18.6041 14.8401C18.5021 14.7044 18.4278 14.55 18.3855 14.3856C18.3433 14.2212 18.3338 14.0501 18.3576 13.8821C18.3814 13.7141 18.4381 13.5524 18.5244 13.4062C18.6108 13.2601 18.725 13.1324 18.8607 13.0305C18.9964 12.9285 19.1508 12.8542 19.3152 12.812C19.4795 12.7697 19.6506 12.7602 19.8186 12.784C19.9867 12.8078 20.1484 12.8645 20.2945 12.9508C20.4406 13.0372 20.5683 13.1514 20.6703 13.2871L22.222 15.3532C22.4277 15.627 22.5163 15.9713 22.4682 16.3104C22.4201 16.6495 22.2406 16.9558 21.9668 17.1617ZM17.8038 0.981381C18.143 1.02948 18.4491 1.21035 18.6549 1.4842C18.8608 1.75805 18.9494 2.10244 18.9013 2.44162L18.5385 4.99936C18.4904 5.33854 18.3096 5.64471 18.0357 5.85054C17.7619 6.05636 17.4175 6.14496 17.0783 6.09686C16.7391 6.04876 16.4329 5.86789 16.2271 5.59404C16.0213 5.32019 15.9327 4.9758 15.9808 4.63662L16.3435 2.07888C16.3916 1.7397 16.5725 1.43353 16.8464 1.22771C17.1202 1.02188 17.4646 0.933279 17.8038 0.981381ZM12.3968 6.57966C12.4988 6.71533 12.6264 6.82959 12.7726 6.91591C12.9187 7.00223 13.0804 7.05893 13.2484 7.08276C13.4165 7.10659 13.5876 7.09709 13.7519 7.0548C13.9163 7.01252 14.0707 6.93827 14.2064 6.8363C14.3421 6.73433 14.4563 6.60664 14.5426 6.46051C14.629 6.31438 14.6857 6.15269 14.7095 5.98465C14.7333 5.81661 14.7238 5.64553 14.6815 5.48116C14.6392 5.3168 14.565 5.16237 14.463 5.0267L12.9099 2.96174C12.8092 2.82286 12.6819 2.70542 12.5354 2.61627C12.3889 2.52712 12.2261 2.46804 12.0565 2.44248C11.8869 2.41692 11.7139 2.4254 11.5476 2.46741C11.3813 2.50942 11.2251 2.58413 11.088 2.68718C10.9508 2.79023 10.8356 2.91955 10.749 3.0676C10.6625 3.21564 10.6062 3.37946 10.5836 3.54947C10.561 3.71949 10.5725 3.89231 10.6174 4.05784C10.6623 4.22337 10.7397 4.37831 10.8451 4.5136L12.3968 6.57966Z" fill="#0207F7"/>
</svg>
