<svg width="7" height="5" viewBox="0 0 7 5" fill="none" xmlns="http://www.w3.org/2000/svg">
<rect x="0.501953" width="5.62304" height="4.92016" rx="0.937173" fill="#262626"/>
<g clip-path="url(#clip0_206_489)">
<path fill-rule="evenodd" clip-rule="evenodd" d="M2.75425 3.02114C2.78856 3.05545 2.84419 3.05545 2.8785 3.02114L3.72426 2.17538V2.84187C3.72426 2.89039 3.7636 2.92973 3.81212 2.92973C3.86065 2.92973 3.89998 2.89039 3.89998 2.84187V1.96327C3.89998 1.91475 3.86065 1.87541 3.81212 1.87541H2.93352C2.885 1.87541 2.84566 1.91475 2.84566 1.96327C2.84566 2.01179 2.885 2.05113 2.93352 2.05113H3.60001L2.75425 2.89689C2.71994 2.9312 2.71994 2.98683 2.75425 3.02114Z" fill="#0310F7"/>
</g>
<defs>
<clipPath id="clip0_206_489">
<rect width="2.34293" height="2.34293" fill="white" transform="translate(2.14258 1.28906)"/>
</clipPath>
</defs>
</svg>
