<svg width="22" height="25" viewBox="0 0 22 25" fill="none" xmlns="http://www.w3.org/2000/svg">
<path d="M7.33333 17.9C6.47778 17.9 5.75463 17.61 5.16389 17.03C4.57315 16.45 4.27778 15.74 4.27778 14.9C4.27778 14.06 4.57315 13.35 5.16389 12.77C5.75463 12.19 6.47778 11.9 7.33333 11.9C8.18889 11.9 8.91204 12.19 9.50278 12.77C10.0935 13.35 10.3889 14.06 10.3889 14.9C10.3889 15.74 10.0935 16.45 9.50278 17.03C8.91204 17.61 8.18889 17.9 7.33333 17.9ZM2.44444 24.5C1.77222 24.5 1.19676 24.265 0.718056 23.795C0.239352 23.325 0 22.76 0 22.1V5.3C0 4.64 0.239352 4.075 0.718056 3.605C1.19676 3.135 1.77222 2.9 2.44444 2.9H3.66667V0.5H6.11111V2.9H15.8889V0.5H18.3333V2.9H19.5556C20.2278 2.9 20.8032 3.135 21.2819 3.605C21.7606 4.075 22 4.64 22 5.3V22.1C22 22.76 21.7606 23.325 21.2819 23.795C20.8032 24.265 20.2278 24.5 19.5556 24.5H2.44444ZM2.44444 22.1H19.5556V10.1H2.44444V22.1Z" fill="#656565"/>
</svg>
