<svg width="38" height="24" viewBox="0 0 38 24" fill="none" xmlns="http://www.w3.org/2000/svg">
<path d="M14.7112 23.1936H28.9336C30.71 23.1936 31.3436 22.6926 31.3436 21.7127C31.3436 18.84 27.689 14.8761 21.8167 14.8761C15.9557 14.8761 12.3012 18.84 12.3012 21.7127C12.3012 22.6926 12.9347 23.1936 14.7112 23.1936ZM21.828 12.883C24.2607 12.883 26.3538 10.7452 26.3538 7.96164C26.3538 5.21143 24.2494 3.17383 21.828 3.17383C19.4067 3.17383 17.3022 5.25597 17.3022 7.98391C17.3022 10.7452 19.3954 12.883 21.828 12.883ZM2.49137 23.1936H11.0905C9.91375 21.5123 11.3507 18.1274 13.7833 16.2791C12.5274 15.4552 10.9094 14.8427 8.7936 14.8427C3.69072 14.8427 0.5 18.5505 0.5 21.6348C0.5 22.6369 1.06573 23.1936 2.49137 23.1936ZM8.80492 13.1392C10.9094 13.1392 12.7424 11.2686 12.7424 8.85239C12.7424 6.45849 10.8981 4.68811 8.80492 4.68811C6.70041 4.68811 4.84481 6.50303 4.85613 8.87467C4.85613 11.2686 6.68909 13.1392 8.80492 13.1392ZM30.2008 12.5491C30.5856 12.8051 31.1173 12.7272 31.4228 12.2929C32.2941 11.1683 32.8146 9.50938 32.8146 7.80576C32.8146 6.10219 32.2941 4.45429 31.4228 3.31858C31.1173 2.88433 30.5856 2.80639 30.2008 3.06248C29.7483 3.37425 29.669 3.93098 30.0311 4.38749C30.6873 5.27824 31.0607 6.51417 31.0607 7.80576C31.0607 9.09736 30.6761 10.3221 30.0311 11.224C29.6804 11.6917 29.7483 12.2261 30.2008 12.5491ZM34.3986 15.4552C34.8172 15.7335 35.3376 15.6333 35.6431 15.2102C37.0914 13.2506 37.94 10.556 37.94 7.80576C37.94 5.05555 37.1028 2.33875 35.6431 0.401352C35.3376 -0.0217578 34.8172 -0.121968 34.3986 0.156393C33.9799 0.434755 33.9121 0.958073 34.2402 1.41459C35.4735 3.12929 36.1862 5.43412 36.1862 7.80576C36.1862 10.1774 35.4508 12.4711 34.2402 14.1969C33.9234 14.6534 33.9799 15.1768 34.3986 15.4552Z" fill="#0310F7"/>
</svg>
