<svg width="121" height="121" viewBox="0 0 121 121" fill="none" xmlns="http://www.w3.org/2000/svg">
<path d="M6.05927 57.1725C6.38718 57.3578 6.72936 57.5288 7.15707 57.7853C9.76612 59.1391 12.5035 59.5523 14.97 59.7946C17.9497 60.2649 21.015 59.8089 23.9805 59.3671C26.3186 59.0251 28.5142 58.6973 30.6813 58.8113C33.7466 58.8541 36.712 59.3956 39.8486 59.9656C41.6307 60.2934 43.4699 60.6211 45.3376 60.8634C46.4639 60.9916 47.5902 61.1341 48.7165 61.2766C47.6187 61.5474 46.5209 61.8324 45.4089 62.1032C43.5982 62.5734 41.8161 63.1292 40.091 63.6707C37.0542 64.6255 34.1885 65.5375 31.0805 65.9793C29.0275 66.3498 26.8033 66.307 24.4367 66.2643C21.4427 66.2073 18.3489 66.136 15.5545 66.9483C13.031 67.5183 10.3649 68.2878 7.85565 70.0264C7.55625 70.2686 7.2426 70.4824 6.9432 70.6961C5.06126 72.0357 2.73736 73.6887 1.95322 79.0469L1.8962 79.4744L2.36668 80.8709L2.68034 81.1702C6.54402 84.9608 9.4097 84.861 11.7051 84.7898C12.0758 84.7898 12.4607 84.7613 12.9597 84.7755C15.8967 84.6473 18.4772 83.6355 20.7298 82.6095C23.5527 81.5264 25.9764 79.6026 28.3146 77.7358C30.168 76.268 31.9074 74.8858 33.8321 73.9025C36.5124 72.4062 39.3496 71.3944 42.3436 70.3256C44.0402 69.7129 45.8081 69.0858 47.5474 68.3591C48.5882 67.9173 49.629 67.4613 50.6697 67.0195C49.8571 67.8176 49.0444 68.6013 48.2175 69.3994C46.8774 70.7104 45.6227 72.0784 44.4109 73.418C42.258 75.7693 40.2335 77.9781 37.7671 79.9304C36.1845 81.2842 34.217 82.353 32.1498 83.493C29.5265 84.9323 26.8033 86.4286 24.8073 88.5234C22.9111 90.2762 20.9722 92.2712 19.6748 95.0358C19.5322 95.3921 19.3754 95.7341 19.2186 96.0761C18.2633 98.1709 17.0658 100.779 19.076 105.795L19.2328 106.194L20.3449 107.177L20.7726 107.291C26.005 108.645 28.4429 107.134 30.4104 105.923C30.7383 105.724 31.052 105.524 31.4939 105.282C33.9747 103.7 35.6998 101.534 37.1397 99.5247C39.0359 97.1876 40.1765 94.2948 41.2743 91.516C42.144 89.3214 42.9566 87.2408 44.14 85.4453C45.7225 82.809 47.6615 80.5147 49.7288 78.0921C50.8979 76.7098 52.1097 75.2848 53.236 73.7885C53.9203 72.8764 54.5904 71.9787 55.2748 71.0667C54.9611 72.1497 54.6617 73.247 54.3338 74.3442C53.8348 76.1398 53.4356 77.9638 53.0364 79.7309C52.3521 82.8375 51.6962 85.773 50.5414 88.6944C49.8428 90.6609 48.688 92.5705 47.4619 94.5798C45.9079 97.1449 44.2968 99.7954 43.6125 102.617C42.8426 105.082 42.1725 107.776 42.4291 110.811C42.4861 111.196 42.5147 111.566 42.5574 111.937C42.7713 114.231 43.0422 117.081 47.2908 120.43L47.633 120.701L49.0872 121L49.5149 120.886C54.733 119.432 56.0874 116.91 57.171 114.887C57.3421 114.559 57.5274 114.217 57.784 113.789C59.1384 111.181 59.5519 108.445 59.7943 105.98C60.2648 103.002 59.8085 99.9379 59.3666 96.9739C59.0244 94.6368 58.6965 92.428 58.8105 90.2762C58.8533 87.2123 59.3951 84.2483 59.9654 81.1132C60.2933 79.3319 60.6212 77.4936 60.8636 75.6268C60.9919 74.501 61.1344 73.3752 61.2628 72.2494C61.5479 73.3467 61.8188 74.444 62.0897 75.5555C62.5602 77.3653 63.1162 79.1466 63.6579 80.8567C64.6132 83.892 65.5256 86.7563 65.9676 89.8629C66.3383 91.915 66.2955 94.138 66.2527 96.5036C66.1957 99.4962 66.1244 102.589 66.9371 105.382C67.5074 107.904 68.2773 110.569 70.0166 113.077C70.259 113.376 70.4728 113.69 70.6867 113.989C72.0269 115.87 73.6807 118.193 79.0414 118.976L79.4691 119.033L80.8663 118.563L81.1657 118.25C84.9581 114.388 84.8583 111.523 84.787 109.229C84.787 108.859 84.7585 108.474 84.7727 107.975C84.6444 105.04 83.6321 102.46 82.6056 100.209C81.5221 97.3871 79.5974 94.9645 77.744 92.6275C76.2755 90.7749 74.8925 89.0364 73.9088 87.1126C72.4118 84.4335 71.3996 81.5977 70.3303 78.6051C69.7172 76.9093 69.0899 75.1423 68.3628 73.4037C67.9208 72.3634 67.4646 71.3232 67.0226 70.2829C67.8068 71.0952 68.6052 71.9074 69.4036 72.734C70.7152 74.0592 72.0839 75.3275 73.4241 76.5388C75.7765 78.6906 77.9863 80.7142 79.9396 83.1795C81.294 84.7613 82.3633 86.7136 83.5038 88.7941C84.9438 91.4162 86.4408 94.138 88.5366 96.1331C90.2902 98.0284 92.2862 99.9664 95.0521 101.263C95.4085 101.406 95.7507 101.562 96.0928 101.719C98.1886 102.674 100.798 103.871 105.816 101.862L106.215 101.705L107.199 100.593L107.313 100.166C108.668 94.9218 107.156 92.4992 105.945 90.5327C105.745 90.2049 105.545 89.8914 105.303 89.4496C103.72 86.9701 101.568 85.2458 99.5431 83.8065C97.2049 81.9112 94.325 80.7712 91.5306 79.6739C89.335 78.8046 87.2535 77.9923 85.4571 76.8096C82.8195 75.2278 80.5241 73.2897 78.1004 71.2234C76.7175 70.0549 75.306 68.8436 73.7947 67.7178C72.8823 67.0338 71.9841 66.364 71.0716 65.68C72.1694 65.9935 73.253 66.2928 74.3508 66.6205C76.1472 67.1193 77.9721 67.5183 79.74 67.9173C82.848 68.6013 85.785 69.2569 88.6934 70.4111C90.6609 71.1094 92.5713 72.2637 94.5816 73.4892C97.1479 75.0425 99.7997 76.6386 102.623 77.3368C105.089 78.1063 107.784 78.7761 110.82 78.5196C111.205 78.4626 111.576 78.4341 111.947 78.3913C114.242 78.1776 117.094 77.9068 120.444 73.6602L120.715 73.3182L121 71.8647L120.886 71.4372C119.432 66.2215 116.908 64.8677 114.884 63.7847C114.556 63.6137 114.214 63.4284 113.886 63.2289L113.786 63.1719C111.177 61.8182 108.439 61.4049 105.973 61.1626C102.993 60.6924 99.928 61.1484 96.9625 61.5901C94.6244 61.9322 92.4145 62.2599 90.2617 62.1459C87.1964 62.1032 84.2309 61.5616 81.0944 60.9916C79.3123 60.6639 77.4731 60.3361 75.6054 60.0939C74.4791 59.9656 73.3528 59.8231 72.2265 59.6806C73.3243 59.3956 74.4363 59.1248 75.5341 58.8541C77.3448 58.3838 79.1269 57.8281 80.852 57.2865C83.8888 56.3318 86.7544 55.4197 89.8625 54.978C91.9155 54.6075 94.1396 54.6502 96.5063 54.693C99.5003 54.7642 102.594 54.8212 105.388 54.0089C107.912 53.4389 110.578 52.6694 113.087 50.9309C113.387 50.6886 113.7 50.4749 114 50.2611C115.882 48.9216 118.206 47.2685 118.99 41.9104L119.047 41.4829L118.576 40.0863L118.263 39.7871C114.399 35.9965 111.533 36.082 109.238 36.1675C108.867 36.1675 108.482 36.196 107.983 36.1817C105.061 36.31 102.466 37.3218 100.213 38.3478C97.3902 39.4308 94.9665 41.3546 92.6284 43.2214C90.775 44.6892 89.0356 46.0715 87.1109 47.0548C84.4305 48.5511 81.5934 49.5628 78.5994 50.6316C76.9028 51.2444 75.1349 51.8714 73.4098 52.5982C72.369 53.0399 71.3283 53.4959 70.2875 53.9377C71.1002 53.1397 71.9128 52.3559 72.7397 51.5579C74.0799 50.2468 75.3345 48.8646 76.5606 47.5393C78.7134 45.188 80.738 42.9792 83.2044 41.0411C84.787 39.6873 86.7545 38.6185 88.8217 37.4785C91.445 36.0392 94.1681 34.5429 96.1641 32.4481C98.0603 30.6953 99.9993 28.7003 101.297 25.9357C101.439 25.5794 101.596 25.2374 101.753 24.8954C102.708 22.8006 103.906 20.207 101.895 15.1767L101.739 14.7776L100.627 13.7944L100.199 13.6804C94.9665 12.3266 92.5286 13.8371 90.5611 15.0484C90.2332 15.2479 89.9195 15.4474 89.4775 15.6897C87.0111 17.2572 85.2717 19.4233 83.8317 21.4468C81.9356 23.7839 80.795 26.6767 79.6972 29.4555C78.8275 31.6501 78.0148 33.7307 76.8315 35.5262C75.249 38.1625 73.31 40.4426 71.257 42.8794C70.0879 44.2617 68.876 45.6867 67.7355 47.183C67.0511 48.095 66.3811 48.9928 65.6967 49.9048C66.0104 48.8076 66.3098 47.7245 66.6377 46.6272C67.1367 44.8317 67.5359 43.0077 67.9351 41.2406C68.6194 38.134 69.2752 35.1984 70.4301 32.2914C71.1287 30.3248 72.2835 28.4153 73.5096 26.406C75.0636 23.8409 76.6604 21.1903 77.359 18.3687C78.1289 15.9034 78.799 13.2101 78.5424 10.1748C78.4853 9.79001 78.4568 9.4195 78.414 9.04899C78.2002 6.75468 77.9293 3.9046 73.6807 0.555765L73.3385 0.285008L71.8843 0L71.4566 0.114003C66.2385 1.56754 64.8841 4.08986 63.8005 6.11341C63.6152 6.44117 63.4441 6.78318 63.1875 7.21069C61.833 9.80426 61.4196 12.5546 61.1772 15.0199C60.7067 17.9982 61.163 21.0621 61.6049 24.0261C61.9471 26.3632 62.275 28.572 62.161 30.7238C62.1039 33.7877 61.5764 36.7517 61.0061 39.8868C60.6782 41.6681 60.3503 43.5064 60.1079 45.3732C59.9796 46.499 59.8371 47.6248 59.7087 48.7506C59.4236 47.6533 59.1527 46.556 58.8818 45.4445C58.4113 43.6347 57.8553 41.8534 57.3135 40.1291C56.3583 37.0937 55.4459 34.2294 55.0039 31.1228C54.6332 29.0708 54.676 26.8477 54.7188 24.4822C54.7758 21.4896 54.8471 18.3972 54.0344 15.6042C53.4641 13.0819 52.6942 10.417 50.9549 7.90896C50.7125 7.6097 50.4987 7.2962 50.2848 6.99694C48.9446 5.11589 47.2908 2.79307 41.9301 2.0093L41.5024 1.9523L40.1052 2.42256L39.8058 2.73607C36.0134 6.59793 36.099 9.46225 36.1845 11.7566C36.1845 12.1271 36.213 12.5118 36.1988 13.0106C36.3271 15.9462 37.3393 18.5255 38.3659 20.7771C39.4494 23.5986 41.3741 26.0212 43.2418 28.3583C44.7103 30.2108 46.0932 31.9494 47.077 33.8732C48.5739 36.5522 49.5862 39.3881 50.6555 42.3806C51.2685 44.0764 51.8958 45.8435 52.623 47.5678C53.0649 48.6081 53.5212 49.6483 53.9631 50.6886C53.1647 49.8763 52.3806 49.0641 51.5822 48.2375C50.2705 46.898 48.8876 45.644 47.5617 44.4184C45.2093 42.2666 42.9994 40.2431 41.0605 37.7778C39.706 36.196 38.6367 34.2437 37.4962 32.1631C36.0562 29.541 34.5592 26.8192 32.4634 24.8242C30.7098 22.9289 28.7138 20.9908 25.9479 19.694C25.5915 19.5515 25.2493 19.3948 24.9072 19.238C22.8114 18.2832 20.2166 17.0862 15.1838 19.0955L14.7846 19.2523L13.8151 20.3638L13.7011 20.7913C12.3466 26.0354 13.8579 28.458 15.0698 30.4246C15.2694 30.7381 15.469 31.0658 15.7113 31.5076C17.2796 33.9729 19.4467 35.7115 21.4712 37.1507C23.8094 39.046 26.7036 40.1861 29.4837 41.2834C31.6793 42.1526 33.7608 42.9649 35.5572 44.1477C38.1948 45.7295 40.4902 47.6675 42.9139 49.7196C44.2968 50.8881 45.7225 52.0994 47.2195 53.2394C48.132 53.9234 49.0302 54.5932 49.9426 55.2772C48.8448 54.9637 47.7613 54.6645 46.6635 54.3367C44.8671 53.8379 43.0422 53.4389 41.2743 53.0399C38.1663 52.3559 35.2293 51.7004 32.3066 50.5461C30.3391 49.8478 28.4287 48.6936 26.4184 47.468C23.8521 45.9147 21.2003 44.3187 18.3774 43.6204C15.9109 42.8509 13.2163 42.1811 10.1796 42.4376C9.79463 42.4946 9.42395 42.5231 9.05327 42.5659C6.75787 42.7796 3.90644 43.0504 0.556026 47.297L0.285138 47.639L0 49.0926L0.114059 49.5201C1.56828 54.7357 4.09178 56.0895 6.11629 57.1725H6.05927ZM32.0927 70.7104C29.8971 71.8219 27.9297 73.3895 26.0192 74.9C23.7951 76.6671 21.685 78.3344 19.2899 79.2606C16.9517 80.3152 14.9557 81.0419 12.8884 81.1417C12.4322 81.1417 12.0045 81.1417 11.5625 81.1559C9.65206 81.2129 8.12656 81.2699 5.64582 78.9756C6.24462 75.6553 7.49924 74.7718 9.05327 73.6602C9.40969 73.4037 9.76611 73.1472 10.0227 72.9335C11.8191 71.6937 13.8436 71.0524 16.4527 70.4539C18.8051 69.7699 21.4997 69.8269 24.3369 69.8839C26.7748 69.9409 29.2983 69.9836 31.6365 69.5561C33.547 69.2854 35.3861 68.8436 37.1968 68.3306C35.4574 69.0146 33.7465 69.7699 32.0927 70.6819V70.7104ZM40.9892 83.5357C39.649 85.5878 38.7223 87.9391 37.8241 90.2049C36.7833 92.8555 35.7853 95.3493 34.1743 97.3444C32.6773 99.4249 31.3086 101.064 29.5692 102.175C29.17 102.389 28.7993 102.617 28.4287 102.859C26.8034 103.871 25.506 104.669 22.2126 103.942C21.072 100.764 21.6993 99.3679 22.4977 97.6436C22.683 97.2446 22.8684 96.8456 22.9824 96.5321C23.9091 94.5513 25.3634 92.998 27.3166 91.1739C29.0132 89.3926 31.3656 88.1101 33.8606 86.7421C35.9992 85.5735 38.209 84.348 40.0197 82.809C41.5309 81.6119 42.9139 80.3152 44.2255 78.9756C43.0707 80.4292 41.9586 81.9397 40.9892 83.5642V83.5357ZM70.6725 88.8939C71.7845 91.0884 73.3528 93.055 74.864 94.9645C76.6319 97.1876 78.3 99.2967 79.2267 101.691C80.2817 104.028 81.0088 106.023 81.1086 108.089C81.1086 108.531 81.1086 108.973 81.1229 109.414C81.1799 111.324 81.2369 112.849 78.9416 115.343C75.6197 114.744 74.7357 113.49 73.6237 111.937C73.367 111.58 73.1104 111.224 72.8966 110.968C71.6562 109.172 71.0146 107.134 70.4158 104.527C69.7315 102.175 69.7885 99.4819 69.8455 96.6461C69.9026 94.2093 69.9453 91.687 69.5176 89.3356C69.2467 87.4261 68.8048 85.5878 68.2915 83.778C68.9758 85.5165 69.7315 87.2266 70.6439 88.8796L70.6725 88.8939ZM83.4896 80.0016C85.5426 81.3412 87.895 82.2675 90.1619 83.1652C92.8137 84.2055 95.3087 85.203 97.3047 86.8133C99.3862 88.3096 101.026 89.6777 102.138 91.4162C102.352 91.8152 102.58 92.1857 102.822 92.5562C103.834 94.1808 104.633 95.4776 103.906 98.7694C100.726 99.9094 99.3292 99.2824 97.6041 98.4844C97.2049 98.2991 96.8057 98.1139 96.4921 97.9999C94.5246 97.0736 92.9563 95.6201 91.1314 93.6678C89.3492 91.972 88.0661 89.6207 86.6832 87.1268C85.5141 84.9893 84.288 82.7805 82.7482 80.9707C81.5506 79.4601 80.2532 78.0778 78.9131 76.7811C80.3673 77.9353 81.8785 79.0469 83.5038 80.0159L83.4896 80.0016ZM90.1476 65.8938C92.5999 66.022 95.0949 65.6515 97.5043 65.2952C100.313 64.882 102.979 64.483 105.517 64.882C108.055 65.1242 110.136 65.4948 112.061 66.4923C112.431 66.706 112.802 66.9055 113.173 67.105C114.855 68.0028 116.195 68.7296 117.222 71.9502C115.041 74.5295 113.515 74.672 111.619 74.8573C111.177 74.9 110.735 74.9428 110.421 74.9998C108.254 75.1708 106.173 74.7148 103.606 73.931C101.225 73.3467 98.9158 71.9502 96.4921 70.4824C94.4105 69.2141 92.2434 67.9173 90.0051 67.1193C88.2087 66.4068 86.398 65.8653 84.5731 65.4092C86.4123 65.68 88.28 65.8938 90.1762 65.9223L90.1476 65.8938ZM88.8503 50.3466C91.0458 49.2351 93.0133 47.6675 94.9238 46.157C97.1479 44.3899 99.2579 42.7226 101.653 41.7964C103.991 40.7276 105.987 40.0151 108.055 39.9153C108.497 39.9153 108.938 39.9153 109.38 39.9011C111.291 39.8441 112.816 39.7871 115.311 42.0814C114.713 45.4017 113.472 46.2852 111.904 47.3968C111.548 47.6533 111.191 47.9098 110.934 48.1093C109.138 49.3491 107.099 49.9903 104.49 50.5889C102.138 51.2729 99.4433 51.2159 96.6061 51.1589C94.1681 51.1019 91.6446 51.0591 89.2922 51.4866C87.3818 51.7574 85.5283 52.1991 83.7319 52.7122C85.4713 52.0281 87.1822 51.2729 88.836 50.3609L88.8503 50.3466ZM79.9538 37.5355C81.294 35.4835 82.2207 33.1321 83.1189 30.8663C84.1597 28.2158 85.1577 25.7219 86.7687 23.7269C88.2657 21.6321 89.6344 20.0075 91.3737 18.896C91.7729 18.6823 92.1436 18.4542 92.5143 18.212C93.6977 17.471 94.7099 16.844 96.4493 16.844C97.0908 16.844 97.8322 16.9295 98.7304 17.129C99.871 20.3068 99.2437 21.7033 98.4453 23.4276C98.2599 23.8266 98.0746 24.2256 97.9605 24.5392C97.0338 26.5057 95.5796 28.0733 93.6264 29.8973C91.9298 31.6786 89.5774 32.9611 87.0824 34.3292C84.9438 35.4977 82.7339 36.7232 80.9233 38.2623C79.412 39.4593 78.0291 40.7561 76.7175 42.0956C77.8723 40.6421 78.9986 39.1315 79.9681 37.507L79.9538 37.5355ZM64.827 15.5187C65.0694 12.9678 65.4544 10.873 66.3953 9.03474C66.6234 8.64998 66.8373 8.26522 67.0511 7.88046C67.9493 6.19892 68.6765 4.85938 71.8986 3.83335C74.4791 6.01366 74.6217 7.53845 74.807 9.43375C74.8498 9.87551 74.8926 10.3173 74.9496 10.6308C75.1349 12.8111 74.6644 14.8774 73.8803 17.4425C73.2958 19.8223 71.8985 22.1308 70.4301 24.5534C69.1612 26.634 67.8638 28.8 67.0654 31.0373C66.3525 32.8329 65.8108 34.6427 65.3545 36.4667C65.6254 34.6284 65.8393 32.7616 65.8678 30.8663C65.9961 28.4153 65.6254 25.9214 65.269 23.5131C64.8555 20.7058 64.4564 18.041 64.8556 15.5044L64.827 15.5187ZM55.7167 97.5581C56.1302 100.365 56.5294 103.03 56.1302 105.567C55.8878 108.118 55.5029 110.212 54.5619 112.051C54.3338 112.436 54.1199 112.82 53.9061 113.205C53.0079 114.887 52.2808 116.226 49.0587 117.252C46.4781 115.072 46.3356 113.547 46.1502 111.652C46.1075 111.21 46.0647 110.782 46.0077 110.455C45.8223 108.274 46.2928 106.208 47.0912 103.643C47.6757 101.263 49.0729 98.9547 50.5414 96.5321C51.8103 94.4515 53.1077 92.2855 53.9061 90.0482C54.6189 88.2526 55.1607 86.4428 55.6169 84.6188C55.3461 86.4571 55.1322 88.3239 55.1037 90.2192C54.9754 92.6702 55.3461 95.1641 55.7025 97.5724L55.7167 97.5581ZM50.2848 32.1774C49.1727 29.9828 47.6045 28.0163 46.0932 26.1067C44.3253 23.8836 42.6572 21.7746 41.7305 19.3805C40.6613 17.0435 39.9484 15.0484 39.8486 12.9821C39.8486 12.5403 39.8486 12.0986 39.8343 11.6568C39.7773 9.74726 39.7203 8.22247 42.0157 5.72865C45.3376 6.32717 46.2215 7.5812 47.3336 9.1345C47.5902 9.49076 47.8468 9.84701 48.0607 10.1035C49.3011 11.8991 49.9426 13.9369 50.5414 16.5447C51.2258 18.896 51.1687 21.5893 51.1117 24.4252C51.0547 26.862 51.0119 29.3843 51.4396 31.7213C51.7105 33.6309 52.1525 35.4835 52.6657 37.279C51.9814 35.5405 51.2257 33.8304 50.3133 32.1774H50.2848ZM37.4677 41.0696C35.4146 39.7301 33.0622 38.8038 30.7953 37.906C28.1435 36.8657 25.6485 35.8682 23.6525 34.2579C21.5567 32.7616 19.9314 31.3936 18.8194 29.655C18.6055 29.256 18.3774 28.8855 18.135 28.515C17.1228 26.8905 16.3244 25.5937 17.0515 22.3018C20.2308 21.1618 21.628 21.8031 23.3531 22.5869C23.7523 22.7721 24.1515 22.9574 24.4652 23.0714C26.4469 23.9976 28.0009 25.4512 29.8258 27.4035C31.608 29.0993 32.8911 31.4506 34.2598 33.9444C35.4289 36.082 36.655 38.2908 38.1948 40.1006C39.3924 41.6111 40.6898 42.9934 42.0442 44.3044C40.59 43.1502 39.0645 42.0244 37.4534 41.0554L37.4677 41.0696ZM9.35265 46.2282C9.79462 46.1855 10.2366 46.1427 10.5502 46.0857C12.7316 45.9147 14.7989 46.3707 17.3652 47.1688C19.7461 47.753 22.0557 49.1496 24.4794 50.6174C26.561 51.8856 28.7281 53.1824 30.9664 53.9804C32.7628 54.693 34.5877 55.2345 36.3984 55.6905C34.5592 55.4197 32.6915 55.206 30.7953 55.1775C28.3431 55.035 25.8481 55.4197 23.4387 55.776C20.63 56.1893 17.964 56.5883 15.4262 56.1893C12.8742 55.947 10.7784 55.5622 8.93921 54.6217C8.55427 54.3937 8.16933 54.18 7.78439 53.9662C6.10205 53.0684 4.76186 52.3417 3.73535 49.1211C5.91669 46.5417 7.44221 46.3992 9.3384 46.214L9.35265 46.2282Z" fill="white" fill-opacity="0.5"/>
</svg>
