<svg width="35" height="35" viewBox="0 0 35 35" fill="none" xmlns="http://www.w3.org/2000/svg">
<path fill-rule="evenodd" clip-rule="evenodd" d="M6.27589 21.1855C5.93551 21.2242 5.62445 21.3966 5.41114 21.6646C5.19783 21.9327 5.09974 22.2745 5.13845 22.6149C5.17716 22.9553 5.3495 23.2663 5.61756 23.4796C5.88561 23.6929 6.22742 23.791 6.5678 23.7523L9.13459 23.4604C9.47497 23.4217 9.78602 23.2493 9.99933 22.9813C10.2126 22.7132 10.3107 22.3714 10.272 22.031C10.2333 21.6907 10.061 21.3796 9.79292 21.1663C9.52486 20.953 9.18305 20.8549 8.84267 20.8936L6.27589 21.1855ZM8.28551 26.8537C8.1764 26.9861 8.09474 27.1388 8.04528 27.303C7.99583 27.4673 7.97958 27.6397 7.99748 27.8103C8.01537 27.9809 8.06707 28.1462 8.14953 28.2965C8.232 28.4469 8.34359 28.5794 8.4778 28.6862C8.61201 28.793 8.76614 28.872 8.9312 28.9186C9.09626 28.9652 9.26895 28.9784 9.43919 28.9576C9.60943 28.9367 9.77381 28.8821 9.92274 28.7971C10.0717 28.712 10.2022 28.5981 10.3066 28.4621L11.9175 26.4407C12.0233 26.3078 12.1018 26.1554 12.1487 25.9921C12.1955 25.8289 12.2097 25.658 12.1906 25.4892C12.1714 25.3205 12.1191 25.1572 12.0368 25.0086C11.9545 24.86 11.8437 24.7292 11.7108 24.6234C11.5779 24.5176 11.4255 24.4391 11.2623 24.3923C11.099 24.3454 10.9281 24.3312 10.7594 24.3504C10.5906 24.3696 10.4273 24.4218 10.2788 24.5041C10.1302 24.5864 9.99931 24.6972 9.89356 24.8301L8.28551 26.8537ZM12.9929 20.6933C12.7172 21.9961 14.0451 23.0527 15.2515 22.493L28.3373 16.4119C29.661 15.7973 29.5549 13.8815 28.1708 13.4162L22.2162 11.4219L18.9357 6.06722C18.1728 4.82279 16.2808 5.14976 15.9791 6.57767L12.9929 20.6933ZM7.04691 15.9629C7.26022 15.6949 7.57123 15.5226 7.91154 15.4839C8.25185 15.4452 8.5936 15.5433 8.86163 15.7565L10.8853 17.3645C11.0181 17.4702 11.1288 17.601 11.211 17.7495C11.2933 17.8979 11.3455 18.0611 11.3647 18.2298C11.3839 18.3984 11.3696 18.5691 11.3228 18.7323C11.276 18.8954 11.1975 19.0477 11.0918 19.1805C10.9862 19.3133 10.8554 19.424 10.7069 19.5063C10.5584 19.5885 10.3952 19.6407 10.2266 19.6599C10.058 19.6791 9.88722 19.6649 9.72408 19.618C9.56095 19.5712 9.40863 19.4927 9.27583 19.3871L7.25458 17.7774C6.98661 17.5641 6.81433 17.2531 6.77563 16.9128C6.73693 16.5725 6.83369 16.2309 7.04691 15.9629ZM15.1439 30.5769C14.8035 30.6156 14.4617 30.5175 14.1937 30.3042C13.9256 30.0909 13.7533 29.7799 13.7146 29.4395L13.4226 26.8727C13.3839 26.5323 13.482 26.1905 13.6953 25.9225C13.9086 25.6544 14.2197 25.4821 14.5601 25.4434C14.9005 25.4046 15.2423 25.5027 15.5103 25.716C15.7784 25.9294 15.9507 26.2404 15.9894 26.5808L16.2813 29.1476C16.3201 29.488 16.222 29.8298 16.0087 30.0978C15.7953 30.3659 15.4843 30.5382 15.1439 30.5769ZM18.9699 23.7991C18.8371 23.6935 18.6847 23.615 18.5216 23.5682C18.3585 23.5213 18.1877 23.5071 18.0191 23.5263C17.8505 23.5455 17.6873 23.5977 17.5388 23.6799C17.3903 23.7622 17.2595 23.8729 17.1539 24.0057C17.0482 24.1385 16.9697 24.2908 16.9229 24.4539C16.8761 24.6171 16.8618 24.7878 16.881 24.9564C16.9002 25.1251 16.9524 25.2883 17.0347 25.4367C17.1169 25.5852 17.2276 25.716 17.3604 25.8217L19.3828 27.4299C19.5151 27.539 19.6678 27.6206 19.8321 27.6701C19.9963 27.7195 20.1687 27.7358 20.3393 27.7179C20.5099 27.7 20.6752 27.6483 20.8256 27.5658C20.976 27.4834 21.1084 27.3718 21.2152 27.2376C21.322 27.1034 21.401 26.9492 21.4476 26.7842C21.4942 26.6191 21.5074 26.4464 21.4866 26.2762C21.4657 26.1059 21.4112 25.9416 21.3261 25.7926C21.241 25.6437 21.1272 25.5132 20.9911 25.4088L18.9699 23.7991Z" fill="#049315"/>
</svg>
