<svg width="26" height="26" viewBox="0 0 26 26" fill="none" xmlns="http://www.w3.org/2000/svg">
<path fill-rule="evenodd" clip-rule="evenodd" d="M14.935 24.6681C14.9222 25.0105 15.0459 25.3439 15.2789 25.595C15.512 25.8461 15.8352 25.9943 16.1775 26.0071C16.5199 26.0199 16.8533 25.8962 17.1044 25.6632C17.3555 25.4302 17.5037 25.1069 17.5165 24.7646L17.613 22.1831C17.6258 21.8407 17.502 21.5073 17.269 21.2562C17.036 21.0051 16.7128 20.8569 16.3704 20.8441C16.0281 20.8313 15.6947 20.955 15.4436 21.188C15.1925 21.421 15.0442 21.7443 15.0314 22.0866L14.935 24.6681ZM20.8405 23.5316C20.955 23.6593 21.0938 23.763 21.2487 23.8365C21.4037 23.91 21.5717 23.952 21.743 23.9599C21.9144 23.9678 22.0856 23.9415 22.2466 23.8825C22.4077 23.8235 22.5554 23.7331 22.6811 23.6164C22.8068 23.4997 22.908 23.3592 22.9789 23.203C23.0497 23.0468 23.0887 22.878 23.0936 22.7066C23.0985 22.5351 23.0693 22.3644 23.0075 22.2044C22.9457 22.0444 22.8527 21.8983 22.7339 21.7746L20.977 19.8787C20.8615 19.7542 20.7226 19.6537 20.5682 19.5829C20.4138 19.5121 20.247 19.4724 20.0773 19.4661C19.9076 19.4597 19.7383 19.4869 19.5791 19.546C19.4198 19.605 19.2738 19.6949 19.1493 19.8104C19.0248 19.926 18.9243 20.0649 18.8535 20.2193C18.7827 20.3736 18.743 20.5404 18.7366 20.7102C18.7303 20.8799 18.7574 21.0492 18.8165 21.2084C18.8756 21.3676 18.9655 21.5137 19.081 21.6382L20.8405 23.5316ZM15.456 17.9533C16.7027 18.4213 17.9466 17.267 17.5742 15.9902L13.525 2.14029C13.1159 0.739374 11.2059 0.556849 10.5382 1.85549L7.67321 7.4435L1.88699 9.88354C0.542192 10.4511 0.581628 12.3708 1.94811 12.8833L15.456 17.9533ZM9.8871 23.1223C9.65416 22.8712 9.53049 22.5379 9.54328 22.1957C9.55607 21.8534 9.70427 21.5302 9.9553 21.2972L11.8487 19.5377C11.9731 19.4222 12.1191 19.3324 12.2782 19.2734C12.4373 19.2143 12.6065 19.1872 12.7761 19.1935C12.9457 19.1999 13.1124 19.2395 13.2666 19.3103C13.4209 19.3811 13.5597 19.4815 13.6752 19.6059C13.7906 19.7303 13.8804 19.8762 13.9395 20.0354C13.9985 20.1945 14.0256 20.3637 14.0193 20.5333C14.013 20.7029 13.9733 20.8696 13.9025 21.0238C13.8318 21.1781 13.7313 21.3169 13.6069 21.4323L11.7123 23.1892C11.4612 23.4222 11.1279 23.5459 10.7856 23.5331C10.4433 23.5203 10.1201 23.3734 9.8871 23.1223ZM25.5505 17.3094C25.5377 17.6517 25.3894 17.9749 25.1383 18.2079C24.8872 18.441 24.5538 18.5647 24.2115 18.5519L21.63 18.4554C21.2876 18.4427 20.9644 18.2944 20.7314 18.0433C20.4983 17.7922 20.3746 17.4588 20.3874 17.1165C20.4002 16.7741 20.5485 16.4509 20.7996 16.2179C21.0507 15.9849 21.3841 15.8611 21.7264 15.8739L24.3079 15.9704C24.6503 15.9832 24.9735 16.1314 25.2065 16.3825C25.4395 16.6336 25.5633 16.967 25.5505 17.3094ZM19.4234 12.5099C19.299 12.6254 19.1985 12.7642 19.1278 12.9184C19.057 13.0727 19.0173 13.2394 19.011 13.409C19.0046 13.5786 19.0318 13.7478 19.0908 13.9069C19.1499 14.066 19.2397 14.2119 19.3551 14.3363C19.4706 14.4608 19.6094 14.5612 19.7636 14.632C19.9179 14.7027 20.0846 14.7424 20.2542 14.7487C20.4238 14.7551 20.593 14.7279 20.7521 14.6689C20.9112 14.6098 21.0571 14.52 21.1816 14.4046L23.0749 12.6463C23.2027 12.5319 23.3063 12.3931 23.3799 12.2382C23.4534 12.0832 23.4953 11.9152 23.5032 11.7439C23.5111 11.5725 23.4848 11.4013 23.4258 11.2403C23.3669 11.0792 23.2764 10.9315 23.1597 10.8058C23.0431 10.6801 22.9025 10.5789 22.7463 10.508C22.5901 10.4372 22.4214 10.3982 22.2499 10.3933C22.0785 10.3884 21.9078 10.4176 21.7478 10.4794C21.5878 10.5412 21.4417 10.6342 21.318 10.753L19.4234 12.5099Z" fill="#476FFF"/>
</svg>
