<svg width="390" height="582" viewBox="0 0 390 582" fill="none" xmlns="http://www.w3.org/2000/svg">
<path d="M22.9412 1H0V49.3333M22.9412 1V49.3333M22.9412 1H45.8824M22.9412 49.3333H0M22.9412 49.3333H45.8824M22.9412 49.3333V97.6667M0 49.3333V97.6667M45.8824 1V49.3333M45.8824 1H68.8235M45.8824 49.3333H68.8235M45.8824 49.3333V97.6667M68.8235 1V49.3333M68.8235 1H91.7647M68.8235 49.3333H91.7647M68.8235 49.3333V97.6667M91.7647 1V49.3333M91.7647 1H114.706M91.7647 49.3333H114.706M91.7647 49.3333V97.6667M114.706 1V49.3333M114.706 1H137.647M114.706 49.3333H137.647M114.706 49.3333V97.6667M137.647 1V49.3333M137.647 1H160.588M137.647 49.3333H160.588M137.647 49.3333V97.6667M160.588 1V49.3333M160.588 1H183.529M160.588 49.3333H183.529M160.588 49.3333V97.6667M183.529 1V49.3333M183.529 1H206.471M183.529 49.3333H206.471M183.529 49.3333V97.6667M206.471 1V49.3333M206.471 1H229.412M206.471 49.3333H229.412M206.471 49.3333V97.6667M229.412 1V49.3333M229.412 1H252.353M229.412 49.3333H252.353M229.412 49.3333V97.6667M252.353 1V49.3333M252.353 1H275.294M252.353 49.3333H275.294M252.353 49.3333V97.6667M275.294 1V49.3333M275.294 1H298.235M275.294 49.3333H298.235M275.294 49.3333V97.6667M298.235 1V49.3333M298.235 1H321.176M298.235 49.3333H321.176M298.235 49.3333V97.6667M321.176 1V49.3333M321.176 1H344.118M321.176 49.3333H344.118M321.176 49.3333V97.6667M344.118 1V49.3333M344.118 1H367.059M344.118 49.3333H367.059M344.118 49.3333V97.6667M367.059 1V49.3333M367.059 1H390V49.3333M367.059 49.3333H390M367.059 49.3333V97.6667M390 49.3333V97.6667M22.9412 97.6667H0M22.9412 97.6667H45.8824M22.9412 97.6667V146M0 97.6667V146M45.8824 97.6667H68.8235M45.8824 97.6667V146M68.8235 97.6667H91.7647M68.8235 97.6667V146M91.7647 97.6667H114.706M91.7647 97.6667V146M114.706 97.6667H137.647M114.706 97.6667V146M137.647 97.6667H160.588M137.647 97.6667V146M160.588 97.6667H183.529M160.588 97.6667V146M183.529 97.6667H206.471M183.529 97.6667V146M206.471 97.6667H229.412M206.471 97.6667V146M229.412 97.6667H252.353M229.412 97.6667V146M252.353 97.6667H275.294M252.353 97.6667V146M275.294 97.6667H298.235M275.294 97.6667V146M298.235 97.6667H321.176M298.235 97.6667V146M321.176 97.6667H344.118M321.176 97.6667V146M344.118 97.6667H367.059M344.118 97.6667V146M367.059 97.6667H390M367.059 97.6667V146M390 97.6667V146M22.9412 146H0M22.9412 146H45.8824M22.9412 146V194.333M0 146V194.333M45.8824 146H68.8235M45.8824 146V194.333M68.8235 146H91.7647M68.8235 146V194.333M91.7647 146H114.706M91.7647 146V194.333M114.706 146H137.647M114.706 146V194.333M137.647 146H160.588M137.647 146V194.333M160.588 146H183.529M160.588 146V194.333M183.529 146H206.471M183.529 146V194.333M206.471 146H229.412M206.471 146V194.333M229.412 146H252.353M229.412 146V194.333M252.353 146H275.294M252.353 146V194.333M275.294 146H298.235M275.294 146V194.333M298.235 146H321.176M298.235 146V194.333M321.176 146H344.118M321.176 146V194.333M344.118 146H367.059M344.118 146V194.333M367.059 146H390M367.059 146V194.333M390 146V194.333M22.9412 194.333H0M22.9412 194.333H45.8824M22.9412 194.333V242.667M0 194.333V242.667M45.8824 194.333H68.8235M45.8824 194.333V242.667M68.8235 194.333H91.7647M68.8235 194.333V242.667M91.7647 194.333H114.706M91.7647 194.333V242.667M114.706 194.333H137.647M114.706 194.333V242.667M137.647 194.333H160.588M137.647 194.333V242.667M160.588 194.333H183.529M160.588 194.333V242.667M183.529 194.333H206.471M183.529 194.333V242.667M206.471 194.333H229.412M206.471 194.333V242.667M229.412 194.333H252.353M229.412 194.333V242.667M252.353 194.333H275.294M252.353 194.333V242.667M275.294 194.333H298.235M275.294 194.333V242.667M298.235 194.333H321.176M298.235 194.333V242.667M321.176 194.333H344.118M321.176 194.333V242.667M344.118 194.333H367.059M344.118 194.333V242.667M367.059 194.333H390M367.059 194.333V242.667M390 194.333V242.667M22.9412 242.667H0M22.9412 242.667H45.8824M22.9412 242.667V291M0 242.667V291M45.8824 242.667H68.8235M45.8824 242.667V291M68.8235 242.667H91.7647M68.8235 242.667V291M91.7647 242.667H114.706M91.7647 242.667V291M114.706 242.667H137.647M114.706 242.667V291M137.647 242.667H160.588M137.647 242.667V291M160.588 242.667H183.529M160.588 242.667V291M183.529 242.667H206.471M183.529 242.667V291M206.471 242.667H229.412M206.471 242.667V291M229.412 242.667H252.353M229.412 242.667V291M252.353 242.667H275.294M252.353 242.667V291M275.294 242.667H298.235M275.294 242.667V291M298.235 242.667H321.176M298.235 242.667V291M321.176 242.667H344.118M321.176 242.667V291M344.118 242.667H367.059M344.118 242.667V291M367.059 242.667H390M367.059 242.667V291M390 242.667V291M22.9412 291H0M22.9412 291H45.8824M22.9412 291V339.333M0 291V339.333M45.8824 291H68.8235M45.8824 291V339.333M68.8235 291H91.7647M68.8235 291V339.333M91.7647 291H114.706M91.7647 291V339.333M114.706 291H137.647M114.706 291V339.333M137.647 291H160.588M137.647 291V339.333M160.588 291H183.529M160.588 291V339.333M183.529 291H206.471M183.529 291V339.333M206.471 291H229.412M206.471 291V339.333M229.412 291H252.353M229.412 291V339.333M252.353 291H275.294M252.353 291V339.333M275.294 291H298.235M275.294 291V339.333M298.235 291H321.176M298.235 291V339.333M321.176 291H344.118M321.176 291V339.333M344.118 291H367.059M344.118 291V339.333M367.059 291H390M367.059 291V339.333M390 291V339.333M22.9412 339.333H0M22.9412 339.333H45.8824M22.9412 339.333V387.667M0 339.333V387.667M45.8824 339.333H68.8235M45.8824 339.333V387.667M68.8235 339.333H91.7647M68.8235 339.333V387.667M91.7647 339.333H114.706M91.7647 339.333V387.667M114.706 339.333H137.647M114.706 339.333V387.667M137.647 339.333H160.588M137.647 339.333V387.667M160.588 339.333H183.529M160.588 339.333V387.667M183.529 339.333H206.471M183.529 339.333V387.667M206.471 339.333H229.412M206.471 339.333V387.667M229.412 339.333H252.353M229.412 339.333V387.667M252.353 339.333H275.294M252.353 339.333V387.667M275.294 339.333H298.235M275.294 339.333V387.667M298.235 339.333H321.176M298.235 339.333V387.667M321.176 339.333H344.118M321.176 339.333V387.667M344.118 339.333H367.059M344.118 339.333V387.667M367.059 339.333H390M367.059 339.333V387.667M390 339.333V387.667M22.9412 387.667H0M22.9412 387.667H45.8824M22.9412 387.667V436M0 387.667V436M45.8824 387.667H68.8235M45.8824 387.667V436M68.8235 387.667H91.7647M68.8235 387.667V436M91.7647 387.667H114.706M91.7647 387.667V436M114.706 387.667H137.647M114.706 387.667V436M137.647 387.667H160.588M137.647 387.667V436M160.588 387.667H183.529M160.588 387.667V436M183.529 387.667H206.471M183.529 387.667V436M206.471 387.667H229.412M206.471 387.667V436M229.412 387.667H252.353M229.412 387.667V436M252.353 387.667H275.294M252.353 387.667V436M275.294 387.667H298.235M275.294 387.667V436M298.235 387.667H321.176M298.235 387.667V436M321.176 387.667H344.118M321.176 387.667V436M344.118 387.667H367.059M344.118 387.667V436M367.059 387.667H390M367.059 387.667V436M390 387.667V436M22.9412 436H0M22.9412 436H45.8824M22.9412 436V484.333M0 436V484.333M45.8824 436H68.8235M45.8824 436V484.333M68.8235 436H91.7647M68.8235 436V484.333M91.7647 436H114.706M91.7647 436V484.333M114.706 436H137.647M114.706 436V484.333M137.647 436H160.588M137.647 436V484.333M160.588 436H183.529M160.588 436V484.333M183.529 436H206.471M183.529 436V484.333M206.471 436H229.412M206.471 436V484.333M229.412 436H252.353M229.412 436V484.333M252.353 436H275.294M252.353 436V484.333M275.294 436H298.235M275.294 436V484.333M298.235 436H321.176M298.235 436V484.333M321.176 436H344.118M321.176 436V484.333M344.118 436H367.059M344.118 436V484.333M367.059 436H390M367.059 436V484.333M390 436V484.333M22.9412 484.333H0M22.9412 484.333H45.8824M22.9412 484.333V532.667M0 484.333V532.667M45.8824 484.333H68.8235M45.8824 484.333V532.667M68.8235 484.333H91.7647M68.8235 484.333V532.667M91.7647 484.333H114.706M91.7647 484.333V532.667M114.706 484.333H137.647M114.706 484.333V532.667M137.647 484.333H160.588M137.647 484.333V532.667M160.588 484.333H183.529M160.588 484.333V532.667M183.529 484.333H206.471M183.529 484.333V532.667M206.471 484.333H229.412M206.471 484.333V532.667M229.412 484.333H252.353M229.412 484.333V532.667M252.353 484.333H275.294M252.353 484.333V532.667M275.294 484.333H298.235M275.294 484.333V532.667M298.235 484.333H321.176M298.235 484.333V532.667M321.176 484.333H344.118M321.176 484.333V532.667M344.118 484.333H367.059M344.118 484.333V532.667M367.059 484.333H390M367.059 484.333V532.667M390 484.333V532.667M22.9412 532.667H0M22.9412 532.667H45.8824M22.9412 532.667V581M0 532.667V581H22.9412M45.8824 532.667H68.8235M45.8824 532.667V581M68.8235 532.667H91.7647M68.8235 532.667V581M91.7647 532.667H114.706M91.7647 532.667V581M114.706 532.667H137.647M114.706 532.667V581M137.647 532.667H160.588M137.647 532.667V581M160.588 532.667H183.529M160.588 532.667V581M183.529 532.667H206.471M183.529 532.667V581M206.471 532.667H229.412M206.471 532.667V581M229.412 532.667H252.353M229.412 532.667V581M252.353 532.667H275.294M252.353 532.667V581M275.294 532.667H298.235M275.294 532.667V581M298.235 532.667H321.176M298.235 532.667V581M321.176 532.667H344.118M321.176 532.667V581M344.118 532.667H367.059M344.118 532.667V581M367.059 532.667H390M367.059 532.667V581M390 532.667V581H367.059M22.9412 581H45.8824M45.8824 581H68.8235M68.8235 581H91.7647M91.7647 581H114.706M114.706 581H137.647M137.647 581H160.588M160.588 581H183.529M183.529 581H206.471M206.471 581H229.412M229.412 581H252.353M252.353 581H275.294M275.294 581H298.235M298.235 581H321.176M321.176 581H344.118M344.118 581H367.059" stroke="url(#paint0_radial_132_914)" stroke-opacity="0.5"/>
<defs>
<radialGradient id="paint0_radial_132_914" cx="0" cy="0" r="1" gradientUnits="userSpaceOnUse" gradientTransform="translate(195 306.491) rotate(90) scale(273.889 195.294)">
<stop stop-color="#0310F7" stop-opacity="0.5"/>
<stop offset="1" stop-color="white" stop-opacity="0"/>
</radialGradient>
</defs>
</svg>
