<svg width="40" height="39" viewBox="0 0 40 39" fill="none" xmlns="http://www.w3.org/2000/svg">
<path fill-rule="evenodd" clip-rule="evenodd" d="M14.0824 9.29545C13.9861 8.96669 13.7632 8.68966 13.4626 8.5253C13.162 8.36093 12.8085 8.3227 12.4797 8.41901C12.151 8.51532 11.8739 8.73828 11.7096 9.03884C11.5452 9.33941 11.507 9.69296 11.6033 10.0217L12.3296 12.5009C12.4259 12.8296 12.6488 13.1066 12.9494 13.271C13.25 13.4354 13.6035 13.4736 13.9323 13.3773C14.261 13.281 14.5381 13.058 14.7024 12.7575C14.8668 12.4569 14.905 12.1033 14.8087 11.7746L14.0824 9.29545ZM8.84103 12.2442C8.692 12.1593 8.52756 12.1049 8.35729 12.0842C8.18703 12.0636 8.01436 12.077 7.84935 12.1238C7.68434 12.1706 7.5303 12.2498 7.39622 12.3567C7.26214 12.4637 7.1507 12.5963 7.06841 12.7468C6.98612 12.8973 6.93462 13.0626 6.91692 13.2332C6.89923 13.4038 6.91568 13.5762 6.96533 13.7404C7.01497 13.9046 7.09682 14.0572 7.20609 14.1894C7.31536 14.3216 7.44986 14.4307 7.60175 14.5104L9.8687 15.7522C10.0177 15.8336 10.1813 15.885 10.3502 15.9032C10.519 15.9215 10.6898 15.9063 10.8528 15.8586C11.0158 15.8108 11.1678 15.7314 11.3001 15.625C11.4324 15.5185 11.5424 15.387 11.6239 15.238C11.7054 15.0889 11.7568 14.9253 11.775 14.7565C11.7933 14.5876 11.7781 14.4168 11.7304 14.2538C11.6826 14.0909 11.6032 13.9389 11.4967 13.8066C11.3903 13.6743 11.2587 13.5642 11.1097 13.4827L8.84103 12.2442ZM15.7153 15.8295C14.3846 15.7805 13.5704 17.2695 14.328 18.3625L22.5559 30.2165C23.3877 31.4157 25.2572 30.9838 25.4792 29.5405L26.4265 23.3327L31.1418 19.1855C32.2376 18.2211 31.5921 16.4128 30.1336 16.3596L15.7153 15.8295ZM19.36 9.16262C19.6605 9.327 19.8834 9.60399 19.9797 9.93268C20.076 10.2614 20.0378 10.6148 19.8735 10.9154L18.6349 13.1841C18.5535 13.333 18.4436 13.4644 18.3113 13.5708C18.1791 13.6772 18.0272 13.7565 17.8644 13.8043C17.7015 13.852 17.5308 13.8671 17.3621 13.8489C17.1933 13.8306 17.0299 13.7793 16.881 13.6979C16.732 13.6165 16.6006 13.5065 16.4942 13.3743C16.3878 13.2421 16.3085 13.0902 16.2608 12.9273C16.2131 12.7645 16.1979 12.5938 16.2161 12.425C16.2344 12.2563 16.2857 12.0928 16.3671 11.9439L17.6076 9.67733C17.772 9.37685 18.049 9.15395 18.3777 9.05766C18.7064 8.96138 19.0595 8.99833 19.36 9.16262ZM6.34466 19.6379C6.24836 19.3092 6.28659 18.9556 6.45095 18.6551C6.61532 18.3545 6.89235 18.1315 7.2211 18.0352L9.70025 17.309C10.029 17.2127 10.3825 17.2509 10.6831 17.4153C10.9837 17.5796 11.2066 17.8566 11.3029 18.1854C11.3993 18.5142 11.361 18.8677 11.1967 19.1683C11.0323 19.4688 10.7553 19.6918 10.4265 19.7881L7.94737 20.5144C7.61861 20.6107 7.26507 20.5724 6.9645 20.4081C6.66394 20.2437 6.44097 19.9667 6.34466 19.6379ZM13.6766 22.2493C13.758 22.1004 13.8093 21.9369 13.8276 21.7682C13.8458 21.5995 13.8306 21.4288 13.7829 21.2659C13.7352 21.103 13.6559 20.9512 13.5495 20.8189C13.4431 20.6867 13.3116 20.5768 13.1627 20.4953C13.0138 20.4139 12.8503 20.3626 12.6816 20.3444C12.5129 20.3261 12.3422 20.3413 12.1793 20.389C12.0164 20.4367 11.8646 20.516 11.7324 20.6224C11.6001 20.7289 11.4902 20.8603 11.4087 21.0092L10.1698 23.2766C10.0849 23.4257 10.0306 23.5901 10.0099 23.7604C9.98924 23.9306 10.0027 24.1033 10.0495 24.2683C10.0963 24.4333 10.1755 24.5874 10.2824 24.7214C10.3894 24.8555 10.5219 24.967 10.6724 25.0493C10.8229 25.1315 10.9883 25.183 11.1589 25.2007C11.3295 25.2184 11.5019 25.202 11.6661 25.1523C11.8302 25.1027 11.9829 25.0209 12.1151 24.9116C12.2473 24.8023 12.3564 24.6678 12.436 24.5159L13.6766 22.2493Z" fill="#F44F01"/>
</svg>
