<svg width="32" height="32" viewBox="0 0 32 32" fill="none" xmlns="http://www.w3.org/2000/svg">
<path fill-rule="evenodd" clip-rule="evenodd" d="M13.2049 4.68061C13.2042 4.33804 13.0675 4.00976 12.8248 3.76797C12.5822 3.52619 12.2534 3.39072 11.9108 3.39136C11.5682 3.39199 11.2399 3.52869 10.9982 3.77138C10.7564 4.01406 10.6209 4.34286 10.6215 4.68543L10.6263 7.26876C10.627 7.61133 10.7637 7.93961 11.0064 8.18139C11.2491 8.42318 11.5778 8.55865 11.9204 8.55801C12.263 8.55737 12.5913 8.42068 12.8331 8.17799C13.0748 7.93531 13.2103 7.60651 13.2097 7.26394L13.2049 4.68061ZM7.3484 6.04778C7.22902 5.92463 7.08631 5.8265 6.92859 5.7591C6.77088 5.69169 6.60132 5.65638 6.42981 5.65521C6.2583 5.65404 6.08828 5.68703 5.92966 5.75228C5.77104 5.81752 5.627 5.9137 5.50595 6.0352C5.38489 6.1567 5.28925 6.3011 5.2246 6.45996C5.15995 6.61882 5.12759 6.78897 5.1294 6.96047C5.13121 7.13198 5.16716 7.3014 5.23514 7.45887C5.30313 7.61633 5.4018 7.75867 5.52539 7.87759L7.35521 9.70319C7.47553 9.82306 7.61828 9.91806 7.77531 9.98276C7.93234 10.0475 8.10058 10.0806 8.27042 10.0803C8.44025 10.08 8.60837 10.0462 8.76515 9.98091C8.92194 9.91563 9.06434 9.8201 9.18421 9.69978C9.30408 9.57946 9.39908 9.43671 9.46378 9.27968C9.52848 9.12265 9.56162 8.95441 9.5613 8.78458C9.56098 8.61474 9.52722 8.44662 9.46193 8.28984C9.39665 8.13305 9.30112 7.99065 9.1808 7.87078L7.3484 6.04778ZM12.9474 11.4107C11.6834 10.992 10.4857 12.1942 10.9078 13.4553L15.4968 27.1359C15.9605 28.5197 17.8762 28.6272 18.4925 27.3034L21.1362 21.6074L26.8224 18.9424C28.1439 18.3225 28.0292 16.4059 26.6437 15.9473L12.9474 11.4107ZM18.3095 6.02735C18.5521 6.26913 18.6887 6.59735 18.6893 6.93986C18.69 7.28236 18.5546 7.61109 18.3129 7.85377L16.4899 9.68617C16.3701 9.8064 16.2278 9.90186 16.0711 9.9671C15.9144 10.0323 15.7464 10.0661 15.5767 10.0664C15.407 10.0667 15.2389 10.0336 15.082 9.96894C14.925 9.90429 14.7824 9.80936 14.6622 9.68957C14.5419 9.56979 14.4465 9.42749 14.3812 9.27082C14.316 9.11414 14.2822 8.94614 14.2819 8.77643C14.2816 8.60671 14.3147 8.43859 14.3794 8.28167C14.444 8.12475 14.539 7.9821 14.6588 7.86187L16.4831 6.03205C16.7248 5.78945 17.0531 5.6528 17.3956 5.65217C17.7381 5.65153 18.0668 5.78566 18.3095 6.02735ZM2.88599 12.4499C2.88535 12.1073 3.02082 11.7785 3.26261 11.5358C3.50439 11.2931 3.83268 11.1564 4.17525 11.1558L6.75857 11.151C7.10115 11.1503 7.42994 11.2858 7.67262 11.5276C7.91531 11.7694 8.05201 12.0977 8.05265 12.4402C8.05328 12.7828 7.91781 13.1116 7.67603 13.3543C7.43424 13.597 7.10596 13.7337 6.76339 13.7343L4.18006 13.7391C3.83749 13.7397 3.5087 13.6043 3.26601 13.3625C3.02332 13.1207 2.88663 12.7924 2.88599 12.4499ZM9.19653 17.0054C9.31631 16.8852 9.41125 16.7426 9.4759 16.5856C9.54056 16.4287 9.57367 16.2606 9.57336 16.0909C9.57304 15.9212 9.5393 15.7532 9.47406 15.5965C9.40882 15.4398 9.31336 15.2975 9.19312 15.1777C9.07289 15.0579 8.93024 14.963 8.77332 14.8984C8.6164 14.8337 8.44828 14.8006 8.27857 14.8009C8.10885 14.8012 7.94085 14.835 7.78418 14.9002C7.6275 14.9654 7.4852 15.0609 7.36542 15.1811L5.54241 17.0122C5.41927 17.1316 5.32113 17.2743 5.25373 17.4321C5.18633 17.5898 5.15101 17.7593 5.14984 17.9308C5.14867 18.1023 5.18167 18.2724 5.24691 18.431C5.31215 18.5896 5.40833 18.7336 5.52983 18.8547C5.65134 18.9757 5.79573 19.0714 5.95459 19.136C6.11346 19.2007 6.2836 19.2331 6.45511 19.2312C6.62661 19.2294 6.79604 19.1935 6.9535 19.1255C7.11096 19.0575 7.25331 18.9588 7.37223 18.8353L9.19653 17.0054Z" fill="#FF14CB"/>
</svg>
