<svg width="22" height="22" viewBox="0 0 22 22" fill="none" xmlns="http://www.w3.org/2000/svg">
<path d="M12.2758 2.07578C12.2758 1.37162 11.7049 0.800781 11.0008 0.800781C10.2966 0.800781 9.72578 1.37162 9.72578 2.07578V9.72578H2.07578C1.37162 9.72578 0.800781 10.2966 0.800781 11.0008C0.800781 11.7049 1.37162 12.2758 2.07578 12.2758L9.72578 12.2758V19.9258C9.72578 20.6299 10.2966 21.2008 11.0008 21.2008C11.7049 21.2008 12.2758 20.6299 12.2758 19.9258V12.2758L19.9258 12.2758C20.6299 12.2758 21.2008 11.7049 21.2008 11.0008C21.2008 10.2966 20.6299 9.72578 19.9258 9.72578H12.2758V2.07578Z" fill="white"/>
</svg>
