<svg width="24" height="21" viewBox="0 0 24 21" fill="none" xmlns="http://www.w3.org/2000/svg">
<path d="M7.55016 20.2507C16.6045 20.2507 21.5583 12.7474 21.5583 6.24259C21.5583 6.03166 21.5536 5.81603 21.5442 5.60509C22.5079 4.90819 23.3395 4.04499 24 3.05603C23.1025 3.45533 22.1496 3.71611 21.1739 3.82947C22.2013 3.21364 22.9705 2.2462 23.3391 1.1065C22.3726 1.67929 21.3156 2.08334 20.2134 2.30134C19.4708 1.51229 18.489 0.989849 17.4197 0.814783C16.3504 0.639718 15.2532 0.821783 14.2977 1.33283C13.3423 1.84387 12.5818 2.65544 12.1338 3.64204C11.6859 4.62865 11.5754 5.73535 11.8195 6.79103C9.86249 6.69282 7.94794 6.18444 6.19998 5.29883C4.45203 4.41323 2.90969 3.17017 1.67297 1.65025C1.0444 2.73398 0.852057 4.01638 1.13503 5.23682C1.418 6.45727 2.15506 7.52418 3.19641 8.22072C2.41463 8.1959 1.64998 7.98541 0.965625 7.60666V7.66759C0.964925 8.80488 1.3581 9.90732 2.07831 10.7875C2.79852 11.6677 3.80132 12.2713 4.91625 12.4957C4.19206 12.6939 3.43198 12.7227 2.69484 12.5801C3.00945 13.5582 3.62157 14.4136 4.44577 15.0271C5.26997 15.6405 6.26512 15.9813 7.29234 16.002C5.54842 17.3718 3.39417 18.1149 1.17656 18.1113C0.783287 18.1107 0.390399 18.0866 0 18.0392C2.25286 19.4845 4.87353 20.2521 7.55016 20.2507Z" fill="#3A44FF"/>
</svg>
